<?xml version="1.0" standalone="no"?>
<!DOCTYPE svg PUBLIC "-//W3C//DTD SVG 20010904//EN"
 "http://www.w3.org/TR/2001/REC-SVG-20010904/DTD/svg10.dtd">
<svg version="1.0" xmlns="http://www.w3.org/2000/svg"
 width="501.000000pt" height="501.000000pt" viewBox="0 0 501.000000 501.000000"
 preserveAspectRatio="xMidYMid meet">
<metadata>
Created by potrace 1.14, written by Peter Selinger 2001-2017
</metadata>
<g transform="translate(0.000000,501.000000) scale(0.100000,-0.100000)"
fill="#000000" stroke="none">
<path d="M2407 4774 c-1 -1 -42 -5 -92 -8 -49 -3 -99 -7 -110 -9 -11 -3 -42
-8 -68 -11 -61 -9 -84 -14 -107 -21 -10 -3 -27 -8 -37 -10 -46 -9 -149 -38
-158 -43 -5 -4 -12 -7 -15 -8 -3 0 -12 -3 -20 -7 -8 -3 -38 -13 -67 -22 -116
-36 -369 -176 -509 -280 -37 -27 -74 -54 -83 -60 -76 -48 -400 -396 -401 -432
0 -6 -4 -13 -9 -15 -33 -12 -218 -358 -256 -478 -10 -30 -21 -59 -25 -65 -5
-5 -16 -39 -25 -75 -9 -36 -19 -72 -21 -80 -66 -237 -85 -565 -49 -850 8 -62
38 -217 46 -231 4 -9 10 -27 12 -40 3 -13 10 -44 17 -69 7 -25 12 -47 12 -50
0 -3 6 -16 13 -30 8 -14 23 -52 35 -85 12 -33 28 -70 36 -82 8 -13 12 -23 10
-23 -4 0 14 -37 82 -164 38 -73 160 -247 227 -326 84 -99 315 -316 349 -329 6
-2 17 -11 25 -19 23 -23 169 -116 246 -156 37 -20 73 -40 79 -44 23 -14 163
-74 216 -92 30 -10 71 -24 90 -31 60 -21 64 -22 90 -26 14 -2 57 -13 95 -23
64 -17 111 -25 205 -37 19 -2 125 -6 235 -8 245 -3 344 6 535 51 116 28 271
80 368 125 34 16 64 29 67 29 13 0 219 119 283 164 40 28 80 56 90 61 9 6 24
17 32 25 8 8 35 31 60 52 66 53 187 173 251 249 67 79 179 234 179 246 0 5 8
18 18 29 10 10 28 39 41 64 12 25 29 56 36 70 21 37 95 196 95 203 0 3 5 18
12 34 6 15 12 30 13 33 1 3 10 32 20 65 10 33 18 64 17 68 -1 4 3 17 9 29 15
28 34 112 49 213 6 44 13 92 16 107 14 90 20 306 10 383 -3 22 -7 65 -10 95
-14 149 -37 268 -76 390 -6 19 -13 43 -15 53 -11 49 -104 274 -136 327 -5 8
-15 26 -21 40 -7 14 -15 27 -18 30 -3 3 -11 16 -18 30 -22 45 -53 94 -83 132
-16 20 -29 40 -29 44 0 3 -12 21 -27 39 -16 18 -41 50 -58 71 -38 49 -213 225
-285 287 -89 77 -297 212 -410 267 -58 28 -113 56 -123 61 -10 5 -50 21 -90
35 -40 14 -81 29 -92 34 -22 9 -63 22 -82 26 -7 1 -42 10 -79 19 -37 9 -77 19
-88 21 -12 2 -32 6 -46 9 -75 15 -212 26 -363 29 -64 1 -118 2 -120 0z"/>
</g>
</svg>
